<svg width="26" height="25" viewBox="0 0 26 25" fill="none" xmlns="http://www.w3.org/2000/svg">
<g filter="url(#filter0_d_76_150)">
<g filter="url(#filter1_d_76_150)">
<mask id="path-1-inside-1_76_150" fill="white">
<path d="M22 8.5C22 13.1944 17.9706 17 13 17C8.02944 17 4 13.1944 4 8.5C4 3.80558 8.02944 0 13 0C17.9706 0 22 3.80558 22 8.5Z"/>
</mask>
<path d="M22 8.5C22 13.1944 17.9706 17 13 17C8.02944 17 4 13.1944 4 8.5C4 3.80558 8.02944 0 13 0C17.9706 0 22 3.80558 22 8.5Z" fill="#49651F"/>
<g clip-path="url(#paint0_diamond_76_150_clip_path)" data-figma-skip-parse="true" mask="url(#path-1-inside-1_76_150)"><g transform="matrix(0 0.0085 -0.009 0 13 8.5)"><rect x="0" y="0" width="1117.65" height="1111.11" fill="url(#paint0_diamond_76_150)" opacity="1" shape-rendering="crispEdges"/><rect x="0" y="0" width="1117.65" height="1111.11" transform="scale(1 -1)" fill="url(#paint0_diamond_76_150)" opacity="1" shape-rendering="crispEdges"/><rect x="0" y="0" width="1117.65" height="1111.11" transform="scale(-1 1)" fill="url(#paint0_diamond_76_150)" opacity="1" shape-rendering="crispEdges"/><rect x="0" y="0" width="1117.65" height="1111.11" transform="scale(-1)" fill="url(#paint0_diamond_76_150)" opacity="1" shape-rendering="crispEdges"/></g></g><path d="M22 8.5H21C21 12.5891 17.4729 16 13 16V17V18C18.4682 18 23 13.7998 23 8.5H22ZM13 17V16C8.5271 16 5 12.5891 5 8.5H4H3C3 13.7998 7.53177 18 13 18V17ZM4 8.5H5C5 4.41095 8.5271 1 13 1V0V-1C7.53177 -1 3 3.20021 3 8.5H4ZM13 0V1C17.4729 1 21 4.41095 21 8.5H22H23C23 3.20021 18.4682 -1 13 -1V0Z" data-figma-gradient-fill="{&#34;type&#34;:&#34;GRADIENT_DIAMOND&#34;,&#34;stops&#34;:[{&#34;color&#34;:{&#34;r&#34;:0.27485802769660950,&#34;g&#34;:0.34977605938911438,&#34;b&#34;:0.085359439253807068,&#34;a&#34;:1.0},&#34;position&#34;:0.99989998340606689},{&#34;color&#34;:{&#34;r&#34;:0.45509803295135498,&#34;g&#34;:0.79607844352722168,&#34;b&#34;:0.24313725531101227,&#34;a&#34;:1.0},&#34;position&#34;:1.0}],&#34;stopsVar&#34;:[{&#34;color&#34;:{&#34;r&#34;:0.27485802769660950,&#34;g&#34;:0.34977605938911438,&#34;b&#34;:0.085359439253807068,&#34;a&#34;:1.0},&#34;position&#34;:0.99989998340606689},{&#34;color&#34;:{&#34;r&#34;:0.45509803295135498,&#34;g&#34;:0.79607844352722168,&#34;b&#34;:0.24313725531101227,&#34;a&#34;:1.0},&#34;position&#34;:1.0}],&#34;transform&#34;:{&#34;m00&#34;:1.1021821408568715e-15,&#34;m01&#34;:-18.0,&#34;m02&#34;:22.0,&#34;m10&#34;:17.0,&#34;m11&#34;:1.0409498114625029e-15,&#34;m12&#34;:-1.0409498114625029e-15},&#34;opacity&#34;:1.0,&#34;blendMode&#34;:&#34;NORMAL&#34;,&#34;visible&#34;:true}" mask="url(#path-1-inside-1_76_150)"/>
</g>
<mask id="path-3-outside-2_76_150" maskUnits="userSpaceOnUse" x="9.5" y="2.5" width="7" height="12" fill="black">
<rect fill="white" x="9.5" y="2.5" width="7" height="12"/>
<path d="M14.988 5.64V12.384C14.988 12.448 14.548 12.652 13.668 12.996C12.796 13.332 12.26 13.5 12.06 13.5C11.868 13.5 11.644 13.328 11.388 12.984C11.14 12.64 11.016 12.228 11.016 11.748V5.988C11.016 5.556 10.852 5.304 10.524 5.232V4.968L11.736 4.284C11.912 4.356 12.076 4.476 12.228 4.644C12.38 4.804 12.456 4.956 12.456 5.1L13.944 4.26C14.088 4.26 14.296 4.424 14.568 4.752C14.848 5.08 14.988 5.376 14.988 5.64ZM13.068 12.396C13.22 12.396 13.376 12.332 13.536 12.204V6.54C13.536 5.972 13.332 5.688 12.924 5.688C12.764 5.688 12.608 5.748 12.456 5.868V11.508C12.456 12.1 12.66 12.396 13.068 12.396Z"/>
</mask>
<path d="M14.988 5.64V12.384C14.988 12.448 14.548 12.652 13.668 12.996C12.796 13.332 12.26 13.5 12.06 13.5C11.868 13.5 11.644 13.328 11.388 12.984C11.14 12.64 11.016 12.228 11.016 11.748V5.988C11.016 5.556 10.852 5.304 10.524 5.232V4.968L11.736 4.284C11.912 4.356 12.076 4.476 12.228 4.644C12.38 4.804 12.456 4.956 12.456 5.1L13.944 4.26C14.088 4.26 14.296 4.424 14.568 4.752C14.848 5.08 14.988 5.376 14.988 5.64ZM13.068 12.396C13.22 12.396 13.376 12.332 13.536 12.204V6.54C13.536 5.972 13.332 5.688 12.924 5.688C12.764 5.688 12.608 5.748 12.456 5.868V11.508C12.456 12.1 12.66 12.396 13.068 12.396Z" fill="white"/>
<path d="M13.668 12.996L14.0276 13.9291L14.0321 13.9274L13.668 12.996ZM11.388 12.984L10.5768 13.5688L10.5813 13.5749L10.5858 13.581L11.388 12.984ZM10.524 5.232H9.52402V6.0363L10.3096 6.20874L10.524 5.232ZM10.524 4.968L10.0325 4.09712L9.52402 4.3841V4.968H10.524ZM11.736 4.284L12.1146 3.35845L11.6663 3.17506L11.2445 3.41312L11.736 4.284ZM12.228 4.644L11.4865 5.31491L11.4946 5.32393L11.503 5.33275L12.228 4.644ZM12.456 5.1H11.456V6.81285L12.9476 5.97082L12.456 5.1ZM13.944 4.26V3.26H13.6812L13.4524 3.38918L13.944 4.26ZM14.568 4.752L13.7983 5.39034L13.8028 5.39583L13.8075 5.40126L14.568 4.752ZM13.536 12.204L14.1607 12.9849L14.536 12.6846V12.204H13.536ZM12.456 5.868L11.8364 5.08312L11.456 5.3834V5.868H12.456ZM14.988 5.64H13.988V12.384H14.988H15.988V5.64H14.988ZM14.988 12.384H13.988C13.988 12.1082 14.1015 11.9159 14.154 11.8383C14.2129 11.751 14.2719 11.6951 14.2984 11.6713C14.3292 11.6436 14.3537 11.6257 14.3648 11.6179C14.3772 11.6092 14.3847 11.6046 14.3853 11.6042C14.3857 11.604 14.3745 11.6107 14.3466 11.625C14.3198 11.6387 14.2839 11.6562 14.2374 11.6778C14.046 11.7665 13.7391 11.8945 13.3039 12.0646L13.668 12.996L14.0321 13.9274C14.4769 13.7535 14.83 13.6075 15.0786 13.4922C15.1986 13.4366 15.3218 13.3756 15.4257 13.3123C15.4735 13.2832 15.5549 13.2312 15.6364 13.1579C15.6766 13.1216 15.746 13.0545 15.8118 12.957C15.8711 12.8692 15.988 12.6678 15.988 12.384H14.988ZM13.668 12.996L13.3085 12.0629C12.8812 12.2275 12.5517 12.3449 12.3129 12.4198C12.1933 12.4573 12.1076 12.4805 12.0505 12.4936C11.9793 12.5098 11.9958 12.5 12.06 12.5V13.5V14.5C12.336 14.5 12.6617 14.4064 12.9111 14.3282C13.2084 14.2351 13.5828 14.1005 14.0276 13.9291L13.668 12.996ZM12.06 13.5V12.5C12.1637 12.5 12.2435 12.5235 12.2921 12.5436C12.3387 12.5629 12.3603 12.5803 12.357 12.5778C12.3544 12.5758 12.3372 12.562 12.3062 12.5286C12.2757 12.4959 12.2369 12.4497 12.1902 12.387L11.388 12.984L10.5858 13.581C10.7435 13.7929 10.9265 14.001 11.139 14.1642C11.3467 14.3236 11.6615 14.5 12.06 14.5V13.5ZM11.388 12.984L12.1992 12.3992C12.0898 12.2475 12.016 12.0469 12.016 11.748H11.016H10.016C10.016 12.4091 10.1902 13.0325 10.5768 13.5688L11.388 12.984ZM11.016 11.748H12.016V5.988H11.016H10.016V11.748H11.016ZM11.016 5.988H12.016C12.016 5.65884 11.9555 5.27423 11.7312 4.92954C11.4886 4.5569 11.1262 4.34037 10.7384 4.25526L10.524 5.232L10.3096 6.20874C10.2886 6.20413 10.2433 6.1905 10.1893 6.15492C10.1334 6.11811 10.0874 6.07037 10.0549 6.02046C9.99456 5.92777 10.016 5.88516 10.016 5.988H11.016ZM10.524 5.232H11.524V4.968H10.524H9.52402V5.232H10.524ZM10.524 4.968L11.0155 5.83888L12.2275 5.15488L11.736 4.284L11.2445 3.41312L10.0325 4.09712L10.524 4.968ZM11.736 4.284L11.3574 5.20955C11.3709 5.21506 11.4159 5.23687 11.4865 5.31491L12.228 4.644L12.9696 3.97309C12.7362 3.71513 12.4532 3.49694 12.1146 3.35845L11.736 4.284ZM12.228 4.644L11.503 5.33275C11.5301 5.36122 11.5217 5.3595 11.5046 5.32521C11.4856 5.28724 11.456 5.20886 11.456 5.1H12.456H13.456C13.456 4.59214 13.1902 4.20487 12.953 3.95525L12.228 4.644ZM12.456 5.1L12.9476 5.97082L14.4356 5.13082L13.944 4.26L13.4524 3.38918L11.9644 4.22918L12.456 5.1ZM13.944 4.26V5.26C13.7926 5.26 13.6863 5.21797 13.6417 5.1972C13.5955 5.17567 13.5772 5.15909 13.5889 5.16827C13.5985 5.17589 13.6221 5.19603 13.6602 5.23507C13.6976 5.2734 13.7436 5.32437 13.7983 5.39034L14.568 4.752L15.3378 4.11366C15.1805 3.92397 15.0093 3.74137 14.8272 3.59773C14.6765 3.4789 14.3634 3.26 13.944 3.26V4.26ZM14.568 4.752L13.8075 5.40126C13.9071 5.51794 13.9566 5.60012 13.979 5.64756C14.0006 5.69323 13.988 5.68701 13.988 5.64H14.988H15.988C15.988 5.02747 15.6718 4.50478 15.3286 4.10274L14.568 4.752ZM13.068 12.396V13.396C13.515 13.396 13.8849 13.2055 14.1607 12.9849L13.536 12.204L12.9113 11.4231C12.8671 11.4585 12.925 11.396 13.068 11.396V12.396ZM13.536 12.204H14.536V6.54H13.536H12.536V12.204H13.536ZM13.536 6.54H14.536C14.536 6.16634 14.4743 5.70617 14.1952 5.3176C13.8722 4.86789 13.3886 4.688 12.924 4.688V5.688V6.688C12.9105 6.688 12.8509 6.6855 12.7708 6.64834C12.6854 6.60869 12.6164 6.54784 12.5708 6.4844C12.5297 6.42711 12.5226 6.389 12.5253 6.4001C12.528 6.41171 12.536 6.45463 12.536 6.54H13.536ZM12.924 5.688V4.688C12.4948 4.688 12.1265 4.85404 11.8364 5.08312L12.456 5.868L13.0757 6.65288C13.085 6.64554 13.0754 6.65505 13.046 6.66635C13.0146 6.67841 12.9722 6.688 12.924 6.688V5.688ZM12.456 5.868H11.456V11.508H12.456H13.456V5.868H12.456ZM12.456 11.508H11.456C11.456 11.8879 11.5158 12.35 11.7856 12.7415C12.1017 13.2001 12.5867 13.396 13.068 13.396V12.396V11.396C13.087 11.396 13.1519 11.3998 13.2357 11.4403C13.3242 11.4831 13.391 11.5464 13.4324 11.6065C13.4694 11.6602 13.4734 11.6921 13.4689 11.6726C13.4644 11.6531 13.456 11.6018 13.456 11.508H12.456Z" fill="#74CB3E" mask="url(#path-3-outside-2_76_150)"/>
</g>
<defs>
<filter id="filter0_d_76_150" x="0" y="0" width="26" height="25" filterUnits="userSpaceOnUse" color-interpolation-filters="sRGB">
<feFlood flood-opacity="0" result="BackgroundImageFix"/>
<feColorMatrix in="SourceAlpha" type="matrix" values="0 0 0 0 0 0 0 0 0 0 0 0 0 0 0 0 0 0 127 0" result="hardAlpha"/>
<feOffset dy="4"/>
<feGaussianBlur stdDeviation="2"/>
<feComposite in2="hardAlpha" operator="out"/>
<feColorMatrix type="matrix" values="0 0 0 0 0 0 0 0 0 0 0 0 0 0 0 0 0 0 0.25 0"/>
<feBlend mode="normal" in2="BackgroundImageFix" result="effect1_dropShadow_76_150"/>
<feBlend mode="normal" in="SourceGraphic" in2="effect1_dropShadow_76_150" result="shape"/>
</filter>
<filter id="filter1_d_76_150" x="0" y="0" width="26" height="25" filterUnits="userSpaceOnUse" color-interpolation-filters="sRGB">
<feFlood flood-opacity="0" result="BackgroundImageFix"/>
<feColorMatrix in="SourceAlpha" type="matrix" values="0 0 0 0 0 0 0 0 0 0 0 0 0 0 0 0 0 0 127 0" result="hardAlpha"/>
<feOffset dy="4"/>
<feGaussianBlur stdDeviation="2"/>
<feComposite in2="hardAlpha" operator="out"/>
<feColorMatrix type="matrix" values="0 0 0 0 0 0 0 0 0 0 0 0 0 0 0 0 0 0 0.25 0"/>
<feBlend mode="normal" in2="BackgroundImageFix" result="effect1_dropShadow_76_150"/>
<feBlend mode="normal" in="SourceGraphic" in2="effect1_dropShadow_76_150" result="shape"/>
</filter>
<clipPath id="paint0_diamond_76_150_clip_path"><path d="M22 8.5H21C21 12.5891 17.4729 16 13 16V17V18C18.4682 18 23 13.7998 23 8.5H22ZM13 17V16C8.5271 16 5 12.5891 5 8.5H4H3C3 13.7998 7.53177 18 13 18V17ZM4 8.5H5C5 4.41095 8.5271 1 13 1V0V-1C7.53177 -1 3 3.20021 3 8.5H4ZM13 0V1C17.4729 1 21 4.41095 21 8.5H22H23C23 3.20021 18.4682 -1 13 -1V0Z" mask="url(#path-1-inside-1_76_150)"/></clipPath><linearGradient id="paint0_diamond_76_150" x1="0" y1="0" x2="500" y2="500" gradientUnits="userSpaceOnUse">
<stop offset="0.9999" stop-color="#465916"/>
<stop offset="1" stop-color="#74CB3E"/>
</linearGradient>
</defs>
</svg>
